<svg id="图层_1" data-name="图层 1" xmlns="http://www.w3.org/2000/svg" xmlns:xlink="http://www.w3.org/1999/xlink" viewBox="0 0 48 48"><defs><style>.cls-1{fill:none;}.cls-2{clip-path:url(#clip-path);}.cls-3{fill:#3077d8;}.cls-4{fill:#3077d8;}.cls-5{fill:#3077d8;}.cls-6{fill:#3077d8;}.cls-7{fill:#3077d8;}.cls-8{fill:#3077d8;}.cls-9{fill:#3077d8;}.cls-10{fill:#3077d8;}.cls-11{fill:#3077d8;}.cls-12{fill:#3077d8;}.cls-13{fill:#3077d8;}.cls-14{fill:#3077d8;}.cls-15{fill:#3077d8;}.cls-16{fill:#3077d8;}.cls-17{fill:#3077d8;}.cls-18{fill:#3077d8;}.cls-19{fill:#3077d8;}.cls-20{fill:#3077d8;}.cls-21{fill:#3077d8;}.cls-22{fill:#3077d8;}.cls-23{fill:#3077d8;}.cls-24{fill:#3077d8;}.cls-25{fill:#3077d8;}.cls-26{fill:#3077d8;}.cls-27{fill:#3077d8;}.cls-28{fill:#3077d8;}.cls-29{fill:#3077d8;}.cls-30{fill:#3077d8;}.cls-31{fill:#3077d8;}.cls-32{fill:#3077d8;}.cls-33{fill:#3077d8;}.cls-34{fill:#3077d8;}.cls-35{fill:#3077d8;}.cls-36{fill:#3077d8;}.cls-37{fill:#3077d8;}.cls-38{fill:#3077d8;}.cls-39{fill:#3077d8;}.cls-40{fill:#3077d8;}.cls-41{fill:#3077d8;}.cls-42{fill:#3077d8;}.cls-43{fill:#3077d8;}.cls-44{fill:#3077d8;}.cls-45{fill:#3077d8;}.cls-46{fill:#3077d8;}.cls-47{fill:#3077d8;}.cls-48{fill:#3077d8;}.cls-49{fill:#3077d8;}.cls-50{fill:#3077d8;}.cls-51{fill:#3077d8;}.cls-52{fill:#3077d8;}.cls-53{fill:#3077d8;}.cls-54{fill:#3077d8;}.cls-55{fill:#3077d8;}.cls-56{fill:#3077d8;}.cls-57{fill:#3077d8;}.cls-58{fill:#3077d8;}.cls-59{fill:#3077d8;}.cls-60{fill:#3077d8;}.cls-61{fill:#3077d8;}.cls-62{fill:#3077d8;}.cls-63{fill:#3077d8;}.cls-64{fill:#3077d8;}.cls-65{fill:#3077d8;}.cls-66{fill:#3077d8;}.cls-67{fill:#3077d8;}.cls-68{fill:#3077d8;}.cls-69{fill:#3077d8;}.cls-70{fill:#3077d8;}.cls-71{fill:#3077d8;}.cls-72{fill:#3077d8;}.cls-73{fill:#3077d8;}.cls-74{fill:#3077d8;}.cls-75{fill:#3077d8;}.cls-76{fill:#3077d8;}.cls-77{fill:#3077d8;}</style><clipPath id="clip-path"><polygon class="cls-1" points="45.5 44 2.5 44 2.5 37 11.5 26 27.5 31 45.5 17 45.5 44"/></clipPath></defs><title>市场2xhdpi</title><g class="cls-2"><polygon class="cls-3" points="45.5 25.58 40.63 17 45.5 17 45.5 25.58"/><polygon class="cls-3" points="45.5 26.86 39.91 17 40.63 17 45.5 25.58 45.5 26.86"/><polygon class="cls-4" points="45.5 28.14 39.18 17 39.91 17 45.5 26.86 45.5 28.14"/><polygon class="cls-5" points="45.5 29.41 38.45 17 39.18 17 45.5 28.14 45.5 29.41"/><polygon class="cls-6" points="45.5 30.69 37.73 17 38.45 17 45.5 29.41 45.5 30.69"/><polygon class="cls-7" points="45.5 31.97 37 17 37.73 17 45.5 30.69 45.5 31.97"/><polygon class="cls-8" points="45.5 33.25 36.28 17 37 17 45.5 31.97 45.5 33.25"/><polygon class="cls-9" points="45.5 34.53 35.55 17 36.28 17 45.5 33.25 45.5 34.53"/><polygon class="cls-10" points="45.5 35.81 34.82 17 35.55 17 45.5 34.53 45.5 35.81"/><polygon class="cls-11" points="45.5 37.09 34.1 17 34.82 17 45.5 35.81 45.5 37.09"/><polygon class="cls-12" points="45.5 38.36 33.37 17 34.1 17 45.5 37.09 45.5 38.36"/><polygon class="cls-13" points="45.5 39.64 32.65 17 33.37 17 45.5 38.36 45.5 39.64"/><polygon class="cls-14" points="45.5 40.92 31.92 17 32.65 17 45.5 39.64 45.5 40.92"/><polygon class="cls-15" points="45.5 42.2 31.2 17 31.92 17 45.5 40.92 45.5 42.2"/><polygon class="cls-16" points="45.5 43.48 30.47 17 31.2 17 45.5 42.2 45.5 43.48"/><polygon class="cls-17" points="45.07 44 29.74 17 30.47 17 45.5 43.48 45.5 44 45.07 44"/><polygon class="cls-18" points="44.34 44 29.02 17 29.74 17 45.07 44 44.34 44"/><polygon class="cls-19" points="43.62 44 28.29 17 29.02 17 44.34 44 43.62 44"/><polygon class="cls-20" points="42.89 44 27.57 17 28.29 17 43.62 44 42.89 44"/><polygon class="cls-21" points="42.17 44 26.84 17 27.57 17 42.89 44 42.17 44"/><polygon class="cls-22" points="41.44 44 26.11 17 26.84 17 42.17 44 41.44 44"/><polygon class="cls-23" points="40.72 44 25.39 17 26.11 17 41.44 44 40.72 44"/><polygon class="cls-24" points="39.99 44 24.66 17 25.39 17 40.72 44 39.99 44"/><polygon class="cls-25" points="39.26 44 23.94 17 24.66 17 39.99 44 39.26 44"/><polygon class="cls-26" points="38.54 44 23.23 17.04 23.3 17 23.94 17 39.26 44 38.54 44"/><polygon class="cls-27" points="37.81 44 22.68 17.35 23.23 17.04 38.54 44 37.81 44"/><polygon class="cls-28" points="37.09 44 22.14 17.66 22.68 17.35 37.81 44 37.09 44"/><polygon class="cls-29" points="36.36 44 21.59 17.97 22.14 17.66 37.09 44 36.36 44"/><polygon class="cls-30" points="35.63 44 21.04 18.29 21.59 17.97 36.36 44 35.63 44"/><polygon class="cls-31" points="34.91 44 20.49 18.6 21.04 18.29 35.63 44 34.91 44"/><polygon class="cls-32" points="34.18 44 19.94 18.91 20.49 18.6 34.91 44 34.18 44"/><polygon class="cls-33" points="33.46 44 19.39 19.22 19.94 18.91 34.18 44 33.46 44"/><polygon class="cls-34" points="32.73 44 18.84 19.53 19.39 19.22 33.46 44 32.73 44"/><polygon class="cls-35" points="32.01 44 18.29 19.84 18.84 19.53 32.73 44 32.01 44"/><polygon class="cls-36" points="31.28 44 17.75 20.16 18.29 19.84 32.01 44 31.28 44"/><polygon class="cls-37" points="30.55 44 17.2 20.47 17.75 20.16 31.28 44 30.55 44"/><polygon class="cls-38" points="29.83 44 16.65 20.78 17.2 20.47 30.55 44 29.83 44"/><polygon class="cls-39" points="29.1 44 16.1 21.09 16.65 20.78 29.83 44 29.1 44"/><polygon class="cls-40" points="28.38 44 15.55 21.4 16.1 21.09 29.1 44 28.38 44"/><polygon class="cls-41" points="27.65 44 15 21.71 15.55 21.4 28.38 44 27.65 44"/><polygon class="cls-42" points="26.93 44 14.45 22.02 15 21.71 27.65 44 26.93 44"/><polygon class="cls-43" points="26.2 44 13.9 22.34 14.45 22.02 26.93 44 26.2 44"/><polygon class="cls-44" points="25.47 44 13.35 22.65 13.9 22.34 26.2 44 25.47 44"/><polygon class="cls-45" points="24.75 44 12.8 22.96 13.35 22.65 25.47 44 24.75 44"/><polygon class="cls-46" points="24.02 44 12.26 23.27 12.8 22.96 24.75 44 24.02 44"/><polygon class="cls-47" points="23.3 44 11.71 23.58 12.26 23.27 24.02 44 23.3 44"/><polygon class="cls-48" points="22.57 44 11.16 23.89 11.71 23.58 23.3 44 22.57 44"/><polygon class="cls-49" points="21.84 44 10.61 24.21 11.16 23.89 22.57 44 21.84 44"/><polygon class="cls-50" points="21.12 44 10.06 24.52 10.61 24.21 21.84 44 21.12 44"/><polygon class="cls-51" points="20.39 44 9.51 24.83 10.06 24.52 21.12 44 20.39 44"/><polygon class="cls-52" points="19.67 44 8.96 25.14 9.51 24.83 20.39 44 19.67 44"/><polygon class="cls-53" points="18.94 44 8.41 25.45 8.96 25.14 19.67 44 18.94 44"/><polygon class="cls-54" points="18.22 44 7.86 25.76 8.41 25.45 18.94 44 18.22 44"/><polygon class="cls-55" points="17.49 44 7.32 26.08 7.86 25.76 18.22 44 17.49 44"/><polygon class="cls-56" points="16.76 44 6.77 26.39 7.32 26.08 17.49 44 16.76 44"/><polygon class="cls-57" points="16.04 44 6.22 26.7 6.77 26.39 16.76 44 16.04 44"/><polygon class="cls-58" points="15.31 44 5.67 27.01 6.22 26.7 16.04 44 15.31 44"/><polygon class="cls-59" points="14.59 44 5.12 27.32 5.67 27.01 15.31 44 14.59 44"/><polygon class="cls-60" points="13.86 44 4.57 27.63 5.12 27.32 14.59 44 13.86 44"/><polygon class="cls-61" points="13.13 44 4.02 27.95 4.57 27.63 13.86 44 13.13 44"/><polygon class="cls-62" points="12.41 44 3.47 28.26 4.02 27.95 13.13 44 12.41 44"/><polygon class="cls-63" points="11.68 44 2.92 28.57 3.47 28.26 12.41 44 11.68 44"/><polygon class="cls-64" points="10.96 44 2.5 29.1 2.5 28.81 2.92 28.57 11.68 44 10.96 44"/><polygon class="cls-65" points="10.23 44 2.5 30.38 2.5 29.1 10.96 44 10.23 44"/><polygon class="cls-66" points="9.51 44 2.5 31.66 2.5 30.38 10.23 44 9.51 44"/><polygon class="cls-67" points="8.78 44 2.5 32.94 2.5 31.66 9.51 44 8.78 44"/><polygon class="cls-68" points="8.05 44 2.5 34.21 2.5 32.94 8.78 44 8.05 44"/><polygon class="cls-69" points="7.33 44 2.5 35.49 2.5 34.21 8.05 44 7.33 44"/><polygon class="cls-70" points="6.6 44 2.5 36.77 2.5 35.49 7.33 44 6.6 44"/><polygon class="cls-71" points="5.88 44 2.5 38.05 2.5 36.77 6.6 44 5.88 44"/><polygon class="cls-72" points="5.15 44 2.5 39.33 2.5 38.05 5.88 44 5.15 44"/><polygon class="cls-73" points="4.43 44 2.5 40.61 2.5 39.33 5.15 44 4.43 44"/><polygon class="cls-74" points="3.7 44 2.5 41.89 2.5 40.61 4.43 44 3.7 44"/><polygon class="cls-75" points="2.97 44 2.5 43.16 2.5 41.89 3.7 44 2.97 44"/><polygon class="cls-76" points="2.5 43.16 2.97 44 2.5 44 2.5 43.16"/></g><path class="cls-77" d="M47.5,46.25H.5V36.54l10.31-12.6L27.1,29,47.5,13.16Zm-43-4h39V21.34L27.9,33.47,12.19,28.56,4.5,38Z"/><polygon class="cls-77" points="2.99 29.56 0 26.97 9.62 15.88 24.51 20 36.95 9.96 35.23 9.96 35.23 6 48.16 6 25.41 24.36 10.97 20.36 2.99 29.56"/></svg>