<svg id="图层_1" data-name="图层 1" xmlns="http://www.w3.org/2000/svg" xmlns:xlink="http://www.w3.org/1999/xlink" viewBox="0 0 48 48"><defs><style>.cls-1{fill:none;}.cls-2{clip-path:url(#clip-path);}.cls-3{fill:#3077d8;}.cls-4{fill:#3077d8;}.cls-5{fill:#3077d8;}.cls-6{fill:#3077d8;}.cls-7{fill:#3077d8;}.cls-8{fill:#3077d8;}.cls-9{fill:#3077d8;}.cls-10{fill:#3077d8;}.cls-11{fill:#3077d8;}.cls-12{fill:#3077d8;}.cls-13{fill:#3077d8;}.cls-14{fill:#3077d8;}.cls-15{fill:#3077d8;}.cls-16{fill:#3077d8;}.cls-17{fill:#3077d8;}.cls-18{fill:#3077d8;}.cls-19{fill:#3077d8;}.cls-20{fill:#3077d8;}.cls-21{fill:#3077d8;}.cls-22{fill:#3077d8;}.cls-23{fill:#3077d8;}.cls-24{fill:#3077d8;}.cls-25{fill:#3077d8;}.cls-26{fill:#3077d8;}.cls-27{fill:#3077d8;}.cls-28{fill:#3077d8;}.cls-29{fill:#3077d8;}.cls-30{fill:#3077d8;}.cls-31{fill:#3077d8;}.cls-32{fill:#3077d8;}.cls-33{fill:#3077d8;}.cls-34{fill:#3077d8;}.cls-35{fill:#3077d8;}.cls-36{fill:#3077d8;}.cls-37{fill:#3077d8;}.cls-38{fill:#3077d8;}.cls-39{fill:#3077d8;}.cls-40{fill:#3077d8;}.cls-41{fill:#3077d8;}.cls-42{fill:#3077d8;}.cls-43{fill:#3077d8;}.cls-44{fill:#3077d8;}.cls-45{fill:#3077d8;}.cls-46{fill:#3077d8;}.cls-47{fill:#3077d8;}.cls-48{fill:#3077d8;}.cls-49{fill:#3077d8;}.cls-50{fill:#3077d8;}.cls-51{fill:#3077d8;}.cls-52{fill:#3077d8;}.cls-53{fill:#3077d8;}.cls-54{clip-path:url(#clip-path-2);}.cls-55{fill:#3077d8;}.cls-56{fill:#3077d8;}.cls-57{fill:#3077d8;}.cls-58{fill:#3077d8;}.cls-59{fill:#3077d8;}.cls-60{fill:#3077d8;}.cls-61{fill:#3077d8;}.cls-62{fill:#3077d8;}.cls-63{fill:#3077d8;}.cls-64{fill:#3077d8;}.cls-65{fill:#3077d8;}.cls-66{fill:#3077d8;}.cls-67{fill:#3077d8;}.cls-68{fill:#3077d8;}.cls-69{fill:#3077d8;}.cls-70{fill:#3077d8;}.cls-71{fill:#3077d8;}.cls-72{fill:#3077d8;}.cls-73{fill:#3077d8;}.cls-74{fill:#3077d8;}.cls-75{fill:#3077d8;}.cls-76{fill:#3077d8;}.cls-77{fill:#3077d8;}.cls-78{fill:#3077d8;}.cls-79{fill:#3077d8;}.cls-80{fill:#3077d8;}.cls-81{fill:#3077d8;}.cls-82{fill:#3077d8;}.cls-83{fill:#3077d8;}.cls-84{fill:#3077d8;}.cls-85{fill:#3077d8;}.cls-86{fill:#3077d8;}.cls-87{fill:#3077d8;}.cls-88{fill:#3077d8;}.cls-89{fill:#3077d8;}</style><clipPath id="clip-path"><path class="cls-1" d="M36.16,15.91c0,2.21-1.35,3.25-2,5.16-2.1,5.74-3.49,7.23-9.22,7.23-5.93,0-8.28-1.16-10.25-7.23-.57-1.74-2.05-3.18-2.05-5.16,0-8.83,4.66-13.41,12.3-13.41S36.16,7.08,36.16,15.91Z"/></clipPath><clipPath id="clip-path-2"><path class="cls-1" d="M4,46l4-6.76a8.28,8.28,0,0,1,10.53-4.62l5.83,2.28,6.86-2.82c4.34-1.78,9.17.74,10.64,5.55L44.75,46Z"/></clipPath></defs><title>我2xhdpi</title><g class="cls-2"><polygon class="cls-3" points="36.16 4.93 15.88 2.5 36.16 2.5 36.16 4.93"/><polygon class="cls-3" points="36.16 5.47 12.59 2.64 12.59 2.5 15.88 2.5 36.16 4.93 36.16 5.47"/><polygon class="cls-4" points="36.16 6 12.59 3.17 12.59 2.64 36.16 5.47 36.16 6"/><polygon class="cls-5" points="36.16 6.54 12.59 3.71 12.59 3.17 36.16 6 36.16 6.54"/><polygon class="cls-6" points="36.16 7.07 12.59 4.24 12.59 3.71 36.16 6.54 36.16 7.07"/><polygon class="cls-7" points="36.16 7.6 12.59 4.77 12.59 4.24 36.16 7.07 36.16 7.6"/><polygon class="cls-8" points="36.16 8.14 12.59 5.31 12.59 4.77 36.16 7.6 36.16 8.14"/><polygon class="cls-9" points="36.16 8.67 12.59 5.84 12.59 5.31 36.16 8.14 36.16 8.67"/><polygon class="cls-10" points="36.16 9.2 12.59 6.37 12.59 5.84 36.16 8.67 36.16 9.2"/><polygon class="cls-11" points="36.16 9.74 12.59 6.91 12.59 6.37 36.16 9.2 36.16 9.74"/><polygon class="cls-12" points="36.16 10.27 12.59 7.44 12.59 6.91 36.16 9.74 36.16 10.27"/><polygon class="cls-13" points="36.16 10.8 12.59 7.97 12.59 7.44 36.16 10.27 36.16 10.8"/><polygon class="cls-14" points="36.16 11.34 12.59 8.51 12.59 7.97 36.16 10.8 36.16 11.34"/><polygon class="cls-15" points="36.16 11.87 12.59 9.04 12.59 8.51 36.16 11.34 36.16 11.87"/><polygon class="cls-16" points="36.16 12.41 12.59 9.58 12.59 9.04 36.16 11.87 36.16 12.41"/><polygon class="cls-17" points="36.16 12.94 12.59 10.11 12.59 9.58 36.16 12.41 36.16 12.94"/><polygon class="cls-18" points="36.16 13.47 12.59 10.64 12.59 10.11 36.16 12.94 36.16 13.47"/><polygon class="cls-19" points="36.16 14.01 12.59 11.18 12.59 10.64 36.16 13.47 36.16 14.01"/><polygon class="cls-20" points="36.16 14.54 12.59 11.71 12.59 11.18 36.16 14.01 36.16 14.54"/><polygon class="cls-21" points="36.16 15.07 12.59 12.24 12.59 11.71 36.16 14.54 36.16 15.07"/><polygon class="cls-22" points="36.16 15.61 12.59 12.78 12.59 12.24 36.16 15.07 36.16 15.61"/><polygon class="cls-23" points="36.16 16.14 12.59 13.31 12.59 12.78 36.16 15.61 36.16 16.14"/><polygon class="cls-24" points="36.16 16.68 12.59 13.85 12.59 13.31 36.16 16.14 36.16 16.68"/><polygon class="cls-25" points="36.16 17.21 12.59 14.38 12.59 13.85 36.16 16.68 36.16 17.21"/><polygon class="cls-26" points="36.16 17.74 12.59 14.91 12.59 14.38 36.16 17.21 36.16 17.74"/><polygon class="cls-27" points="36.16 18.28 12.59 15.45 12.59 14.91 36.16 17.74 36.16 18.28"/><polygon class="cls-28" points="36.16 18.81 12.59 15.98 12.59 15.45 36.16 18.28 36.16 18.81"/><polygon class="cls-29" points="36.16 19.34 12.59 16.51 12.59 15.98 36.16 18.81 36.16 19.34"/><polygon class="cls-30" points="36.16 19.88 12.59 17.05 12.59 16.51 36.16 19.34 36.16 19.88"/><polygon class="cls-31" points="36.16 20.41 12.59 17.58 12.59 17.05 36.16 19.88 36.16 20.41"/><polygon class="cls-32" points="36.16 20.95 12.59 18.11 12.59 17.58 36.16 20.41 36.16 20.95"/><polygon class="cls-33" points="36.16 21.48 12.59 18.65 12.59 18.11 36.16 20.95 36.16 21.48"/><polygon class="cls-34" points="36.16 22.01 12.59 19.18 12.59 18.65 36.16 21.48 36.16 22.01"/><polygon class="cls-35" points="36.16 22.55 12.59 19.71 12.59 19.18 36.16 22.01 36.16 22.55"/><polygon class="cls-36" points="36.16 23.08 12.59 20.25 12.59 19.71 36.16 22.55 36.16 23.08"/><polygon class="cls-37" points="36.16 23.61 12.59 20.78 12.59 20.25 36.16 23.08 36.16 23.61"/><polygon class="cls-38" points="36.16 24.15 12.59 21.32 12.59 20.78 36.16 23.61 36.16 24.15"/><polygon class="cls-39" points="36.16 24.68 12.59 21.85 12.59 21.32 36.16 24.15 36.16 24.68"/><polygon class="cls-40" points="36.16 25.21 12.59 22.38 12.59 21.85 36.16 24.68 36.16 25.21"/><polygon class="cls-41" points="36.16 25.75 12.59 22.92 12.59 22.38 36.16 25.21 36.16 25.75"/><polygon class="cls-42" points="36.16 26.28 12.59 23.45 12.59 22.92 36.16 25.75 36.16 26.28"/><polygon class="cls-43" points="36.16 26.82 12.59 23.98 12.59 23.45 36.16 26.28 36.16 26.82"/><polygon class="cls-44" points="36.16 27.35 12.59 24.52 12.59 23.98 36.16 26.82 36.16 27.35"/><polygon class="cls-45" points="36.16 27.88 12.59 25.05 12.59 24.52 36.16 27.35 36.16 27.88"/><polygon class="cls-46" points="35.16 28.3 12.59 25.59 12.59 25.05 36.16 27.88 36.16 28.3 35.16 28.3"/><polygon class="cls-47" points="30.72 28.3 12.59 26.12 12.59 25.59 35.16 28.3 30.72 28.3"/><polygon class="cls-48" points="26.28 28.3 12.59 26.65 12.59 26.12 30.72 28.3 26.28 28.3"/><polygon class="cls-49" points="21.83 28.3 12.59 27.19 12.59 26.65 26.28 28.3 21.83 28.3"/><polygon class="cls-50" points="17.39 28.3 12.59 27.72 12.59 27.19 21.83 28.3 17.39 28.3"/><polygon class="cls-51" points="12.95 28.3 12.59 28.25 12.59 27.72 17.39 28.3 12.95 28.3"/><polygon class="cls-52" points="12.59 28.25 12.95 28.3 12.59 28.3 12.59 28.25"/></g><path class="cls-53" d="M24.89,30.3c-6.34,0-9.78-1.29-12.15-8.61A10.75,10.75,0,0,0,12,20.15a8.53,8.53,0,0,1-1.4-4.24C10.59,6.26,15.94.5,24.89.5c6.05,0,13.27,2.67,13.27,15.41a8.1,8.1,0,0,1-1.4,4.34A9,9,0,0,0,36,21.76C33.68,28.06,31.66,30.3,24.89,30.3Zm0-25.8c-6.74,0-10.3,3.95-10.3,11.41a5.1,5.1,0,0,0,.89,2.29,12.14,12.14,0,0,1,1.06,2.26c1.68,5.15,3.19,5.84,8.35,5.84,4.6,0,5.42-.67,7.34-5.91a12.89,12.89,0,0,1,1.08-2.17,4.23,4.23,0,0,0,.85-2.31C34.16,5.8,29.2,4.5,24.89,4.5Z"/><g class="cls-54"><polygon class="cls-52" points="44.75 32.62 42.1 32.3 44.75 32.3 44.75 32.62"/><polygon class="cls-55" points="44.75 33.15 37.69 32.3 42.1 32.3 44.75 32.62 44.75 33.15"/><polygon class="cls-56" points="44.75 33.68 33.27 32.3 37.69 32.3 44.75 33.15 44.75 33.68"/><polygon class="cls-57" points="44.75 34.21 28.86 32.3 33.27 32.3 44.75 33.68 44.75 34.21"/><polygon class="cls-58" points="44.75 34.74 24.44 32.3 28.86 32.3 44.75 34.21 44.75 34.74"/><polygon class="cls-59" points="44.75 35.27 20.03 32.3 24.44 32.3 44.75 34.74 44.75 35.27"/><polygon class="cls-60" points="44.75 35.8 15.61 32.3 20.03 32.3 44.75 35.27 44.75 35.8"/><polygon class="cls-61" points="44.75 36.34 11.2 32.3 15.61 32.3 44.75 35.8 44.75 36.34"/><polygon class="cls-62" points="44.75 36.87 6.78 32.3 11.2 32.3 44.75 36.34 44.75 36.87"/><polygon class="cls-63" points="44.75 37.4 4 32.5 4 32.3 6.78 32.3 44.75 36.87 44.75 37.4"/><polygon class="cls-64" points="44.75 37.93 4 33.03 4 32.5 44.75 37.4 44.75 37.93"/><polygon class="cls-65" points="44.75 38.46 4 33.56 4 33.03 44.75 37.93 44.75 38.46"/><polygon class="cls-66" points="44.75 38.99 4 34.09 4 33.56 44.75 38.46 44.75 38.99"/><polygon class="cls-67" points="44.75 39.52 4 34.62 4 34.09 44.75 38.99 44.75 39.52"/><polygon class="cls-68" points="44.75 40.05 4 35.15 4 34.62 44.75 39.52 44.75 40.05"/><polygon class="cls-69" points="44.75 40.58 4 35.68 4 35.15 44.75 40.05 44.75 40.58"/><polygon class="cls-70" points="44.75 41.11 4 36.21 4 35.68 44.75 40.58 44.75 41.11"/><polygon class="cls-71" points="44.75 41.64 4 36.74 4 36.21 44.75 41.11 44.75 41.64"/><polygon class="cls-72" points="44.75 42.17 4 37.27 4 36.74 44.75 41.64 44.75 42.17"/><polygon class="cls-73" points="44.75 42.7 4 37.8 4 37.27 44.75 42.17 44.75 42.7"/><polygon class="cls-74" points="44.75 43.23 4 38.34 4 37.8 44.75 42.7 44.75 43.23"/><polygon class="cls-75" points="44.75 43.76 4 38.87 4 38.34 44.75 43.23 44.75 43.76"/><polygon class="cls-76" points="44.75 44.29 4 39.4 4 38.87 44.75 43.76 44.75 44.29"/><polygon class="cls-77" points="44.75 44.82 4 39.93 4 39.4 44.75 44.29 44.75 44.82"/><polygon class="cls-78" points="44.75 45.35 4 40.46 4 39.93 44.75 44.82 44.75 45.35"/><polygon class="cls-79" points="44.75 45.88 4 40.99 4 40.46 44.75 45.35 44.75 45.88"/><polygon class="cls-80" points="41.33 46 4 41.52 4 40.99 44.75 45.88 44.75 46 41.33 46"/><polygon class="cls-81" points="36.91 46 4 42.05 4 41.52 41.33 46 36.91 46"/><polygon class="cls-82" points="32.5 46 4 42.58 4 42.05 36.91 46 32.5 46"/><polygon class="cls-83" points="28.08 46 4 43.11 4 42.58 32.5 46 28.08 46"/><polygon class="cls-84" points="23.67 46 4 43.64 4 43.11 28.08 46 23.67 46"/><polygon class="cls-85" points="19.25 46 4 44.17 4 43.64 23.67 46 19.25 46"/><polygon class="cls-86" points="14.84 46 4 44.7 4 44.17 19.25 46 14.84 46"/><polygon class="cls-87" points="10.42 46 4 45.23 4 44.7 14.84 46 10.42 46"/><polygon class="cls-88" points="6 46 4 45.76 4 45.23 10.42 46 6 46"/><polygon class="cls-89" points="4 45.76 6 46 4 46 4 45.76"/></g><path class="cls-53" d="M47.84,48H.48l5.77-9.69a10.25,10.25,0,0,1,13-5.55l5.09,2,6.12-2.51a9.52,9.52,0,0,1,7.75.22,10.67,10.67,0,0,1,5.52,6.47ZM7.52,44H41.66L40,40.21a6.73,6.73,0,0,0-3.45-4.15A5.52,5.52,0,0,0,32,35.94l-7.61,3.11-6.57-2.56a6.3,6.3,0,0,0-8,3.59l-.1.19Z"/></svg>