<svg id="图层_1" data-name="图层 1" xmlns="http://www.w3.org/2000/svg" viewBox="0 0 48 48"><defs><style>.cls-1{fill:#999;}</style></defs><title>我1xhdpi</title><path class="cls-1" d="M24.74,30.31c-6.11,0-9.43-1.22-11.73-8.18a7.81,7.81,0,0,0-.71-1.42A8.09,8.09,0,0,1,11,16.64C11,7.47,16.1,2,24.74,2c5.85,0,12.81,2.54,12.81,14.64a7.61,7.61,0,0,1-1.36,4.16,8.92,8.92,0,0,0-.73,1.4C33.23,28.19,31.28,30.31,24.74,30.31ZM24.74,6C18.33,6,15,9.68,15,16.64a4.63,4.63,0,0,0,.83,2.08,11.72,11.72,0,0,1,1,2.16c1.59,4.79,3,5.43,7.93,5.43,4.37,0,5.15-.61,7-5.5a11.92,11.92,0,0,1,1-2.06,3.88,3.88,0,0,0,.79-2.11C33.55,7.21,28.84,6,24.74,6Z"/><path class="cls-1" d="M47.66,47H.38l5.86-9.34A10.39,10.39,0,0,1,19.15,32.4l5.08,1.88,6.12-2.37a9.77,9.77,0,0,1,7.84.29,10.37,10.37,0,0,1,5.32,6Zm-40-4H41.34l-1.6-3.39a6.22,6.22,0,0,0-3.27-3.8,5.87,5.87,0,0,0-4.68-.18l-7.52,2.93-6.51-2.41a6.4,6.4,0,0,0-8,3.35l-.11.19Z"/></svg>