<svg id="图层_1" data-name="图层 1" xmlns="http://www.w3.org/2000/svg" xmlns:xlink="http://www.w3.org/1999/xlink" viewBox="0 0 48 48"><defs><style>.cls-1{fill:none;}.cls-2{clip-path:url(#clip-path);}.cls-3{fill:#3077d8;}.cls-4{fill:#3077d8;}.cls-5{fill:#3077d8;}.cls-6{fill:#3077d8;}.cls-7{fill:#3077d8;}.cls-8{fill:#3077d8;}.cls-9{fill:#3077d8;}.cls-10{fill:#3077d8;}.cls-11{fill:#3077d8;}.cls-12{fill:#3077d8;}.cls-13{fill:#3077d8;}.cls-14{fill:#3077d8;}.cls-15{fill:#3077d8;}.cls-16{fill:#3077d8;}.cls-17{fill:#3077d8;}.cls-18{fill:#3077d8;}.cls-19{fill:#3077d8;}.cls-20{fill:#3077d8;}.cls-21{fill:#3077d8;}.cls-22{fill:#3077d8;}.cls-23{fill:#3077d8;}.cls-24{fill:#3077d8;}.cls-25{fill:#3077d8;}.cls-26{fill:#3077d8;}.cls-27{fill:#3077d8;}.cls-28{fill:#3077d8;}.cls-29{fill:#3077d8;}.cls-30{fill:#3077d8;}.cls-31{fill:#3077d8;}.cls-32{fill:#3077d8;}.cls-33{fill:#3077d8;}.cls-34{fill:#3077d8;}.cls-35{fill:#3077d8;}.cls-36{fill:#3077d8;}.cls-37{fill:#3077d8;}.cls-38{fill:#3077d8;}.cls-39{fill:#3077d8;}.cls-40{fill:#3077d8;}.cls-41{fill:#3077d8;}.cls-42{fill:#3077d8;}.cls-43{fill:#3077d8;}.cls-44{fill:#3077d8;}.cls-45{fill:#3077d8;}.cls-46{fill:#3077d8;}.cls-47{fill:#3077d8;}.cls-48{fill:#3077d8;}.cls-49{fill:#3077d8;}.cls-50{fill:#3077d8;}.cls-51{fill:#3077d8;}.cls-52{fill:#3077d8;}.cls-53{fill:#3077d8;}.cls-54{fill:#3077d8;}.cls-55{fill:#3077d8;}.cls-56{fill:#3077d8;}.cls-57{fill:#3077d8;}.cls-58{fill:#3077d8;}.cls-59{fill:#3077d8;}.cls-60{fill:#3077d8;}.cls-61{fill:#3077d8;}.cls-62{fill:#3077d8;}.cls-63{fill:#3077d8;}.cls-64{fill:#3077d8;}.cls-65{fill:#3077d8;}.cls-66{fill:#3077d8;}.cls-67{fill:#3077d8;}.cls-68{fill:#3077d8;}.cls-69{fill:#3077d8;}.cls-70{fill:#3077d8;}.cls-71{fill:#3077d8;}.cls-72{fill:#3077d8;}.cls-73{fill:#3077d8;}.cls-74{fill:#3077d8;}.cls-75{fill:#3077d8;}.cls-76{fill:#3077d8;}.cls-77{fill:#3077d8;}.cls-78{fill:#3077d8;}.cls-79{fill:#3077d8;}.cls-80{fill:#3077d8;}.cls-81{fill:#3077d8;}.cls-82{fill:#3077d8;}.cls-83{fill:#3077d8;}.cls-84{fill:#3077d8;}.cls-85{fill:#3077d8;}.cls-86{fill:#3077d8;}.cls-87{fill:#3077d8;}.cls-88{clip-path:url(#clip-path-2);}.cls-89{fill:#3077d8;}.cls-90{fill:#3077d8;}.cls-91{fill:#3077d8;}.cls-92{fill:#3077d8;}.cls-93{fill:#3077d8;}.cls-94{fill:#3077d8;}.cls-95{fill:#3077d8;}.cls-96{fill:#3077d8;}</style><clipPath id="clip-path"><rect class="cls-1" x="2" y="7" width="44" height="37"/></clipPath><clipPath id="clip-path-2"><rect class="cls-1" x="31" y="19" width="15" height="12"/></clipPath></defs><title>钱包2xhdpi</title><g class="cls-2"><polygon class="cls-3" points="46 21.87 31.13 7 46 7 46 21.87"/><polygon class="cls-3" points="46 22.66 30.34 7 31.13 7 46 21.87 46 22.66"/><polygon class="cls-4" points="46 23.45 29.55 7 30.34 7 46 22.66 46 23.45"/><polygon class="cls-5" points="46 24.24 28.76 7 29.55 7 46 23.45 46 24.24"/><polygon class="cls-6" points="46 25.04 27.96 7 28.76 7 46 24.24 46 25.04"/><polygon class="cls-7" points="46 25.83 27.17 7 27.96 7 46 25.04 46 25.83"/><polygon class="cls-8" points="46 26.62 26.38 7 27.17 7 46 25.83 46 26.62"/><polygon class="cls-9" points="46 27.41 25.59 7 26.38 7 46 26.62 46 27.41"/><polygon class="cls-10" points="46 28.2 24.8 7 25.59 7 46 27.41 46 28.2"/><polygon class="cls-11" points="46 29 24 7 24.8 7 46 28.2 46 29"/><polygon class="cls-12" points="46 29.79 23.21 7 24 7 46 29 46 29.79"/><polygon class="cls-13" points="46 30.58 22.42 7 23.21 7 46 29.79 46 30.58"/><polygon class="cls-14" points="46 31.37 21.63 7 22.42 7 46 30.58 46 31.37"/><polygon class="cls-15" points="46 32.17 20.83 7 21.63 7 46 31.37 46 32.17"/><polygon class="cls-16" points="46 32.96 20.04 7 20.83 7 46 32.17 46 32.96"/><polygon class="cls-17" points="46 33.75 19.25 7 20.04 7 46 32.96 46 33.75"/><polygon class="cls-18" points="46 34.54 18.46 7 19.25 7 46 33.75 46 34.54"/><polygon class="cls-19" points="46 35.34 17.66 7 18.46 7 46 34.54 46 35.34"/><polygon class="cls-20" points="46 36.13 16.87 7 17.66 7 46 35.34 46 36.13"/><polygon class="cls-21" points="46 36.92 16.08 7 16.87 7 46 36.13 46 36.92"/><polygon class="cls-22" points="46 37.71 15.29 7 16.08 7 46 36.92 46 37.71"/><polygon class="cls-23" points="46 38.51 14.49 7 15.29 7 46 37.71 46 38.51"/><polygon class="cls-24" points="46 39.3 13.7 7 14.49 7 46 38.51 46 39.3"/><polygon class="cls-25" points="46 40.09 12.91 7 13.7 7 46 39.3 46 40.09"/><polygon class="cls-26" points="46 40.88 12.12 7 12.91 7 46 40.09 46 40.88"/><polygon class="cls-27" points="46 41.67 11.33 7 12.12 7 46 40.88 46 41.67"/><polygon class="cls-28" points="46 42.47 10.53 7 11.33 7 46 41.67 46 42.47"/><polygon class="cls-29" points="46 43.26 9.74 7 10.53 7 46 42.47 46 43.26"/><polygon class="cls-30" points="45.95 44 8.95 7 9.74 7 46 43.26 46 44 45.95 44"/><polygon class="cls-31" points="45.16 44 8.16 7 8.95 7 45.95 44 45.16 44"/><polygon class="cls-32" points="44.37 44 7.37 7 8.16 7 45.16 44 44.37 44"/><polygon class="cls-33" points="43.57 44 6.57 7 7.37 7 44.37 44 43.57 44"/><polygon class="cls-34" points="42.78 44 5.78 7 6.57 7 43.57 44 42.78 44"/><polygon class="cls-35" points="41.99 44 4.99 7 5.78 7 42.78 44 41.99 44"/><polygon class="cls-36" points="41.2 44 4.2 7 4.99 7 41.99 44 41.2 44"/><polygon class="cls-37" points="40.4 44 3.4 7 4.2 7 41.2 44 40.4 44"/><polygon class="cls-38" points="39.61 44 2.61 7 3.4 7 40.4 44 39.61 44"/><polygon class="cls-39" points="38.82 44 2 7.18 2 7 2.61 7 39.61 44 38.82 44"/><polygon class="cls-40" points="38.03 44 2 7.97 2 7.18 38.82 44 38.03 44"/><polygon class="cls-41" points="37.23 44 2 8.77 2 7.97 38.03 44 37.23 44"/><polygon class="cls-42" points="36.44 44 2 9.56 2 8.77 37.23 44 36.44 44"/><polygon class="cls-43" points="35.65 44 2 10.35 2 9.56 36.44 44 35.65 44"/><polygon class="cls-44" points="34.86 44 2 11.14 2 10.35 35.65 44 34.86 44"/><polygon class="cls-45" points="34.07 44 2 11.93 2 11.14 34.86 44 34.07 44"/><polygon class="cls-46" points="33.27 44 2 12.73 2 11.93 34.07 44 33.27 44"/><polygon class="cls-47" points="32.48 44 2 13.52 2 12.73 33.27 44 32.48 44"/><polygon class="cls-48" points="31.69 44 2 14.31 2 13.52 32.48 44 31.69 44"/><polygon class="cls-49" points="30.9 44 2 15.1 2 14.31 31.69 44 30.9 44"/><polygon class="cls-50" points="30.1 44 2 15.9 2 15.1 30.9 44 30.1 44"/><polygon class="cls-51" points="29.31 44 2 16.69 2 15.9 30.1 44 29.31 44"/><polygon class="cls-52" points="28.52 44 2 17.48 2 16.69 29.31 44 28.52 44"/><polygon class="cls-53" points="27.73 44 2 18.27 2 17.48 28.52 44 27.73 44"/><polygon class="cls-54" points="26.93 44 2 19.07 2 18.27 27.73 44 26.93 44"/><polygon class="cls-55" points="26.14 44 2 19.86 2 19.07 26.93 44 26.14 44"/><polygon class="cls-56" points="25.35 44 2 20.65 2 19.86 26.14 44 25.35 44"/><polygon class="cls-57" points="24.56 44 2 21.44 2 20.65 25.35 44 24.56 44"/><polygon class="cls-58" points="23.77 44 2 22.23 2 21.44 24.56 44 23.77 44"/><polygon class="cls-59" points="22.97 44 2 23.03 2 22.23 23.77 44 22.97 44"/><polygon class="cls-60" points="22.18 44 2 23.82 2 23.03 22.97 44 22.18 44"/><polygon class="cls-61" points="21.39 44 2 24.61 2 23.82 22.18 44 21.39 44"/><polygon class="cls-62" points="20.6 44 2 25.4 2 24.61 21.39 44 20.6 44"/><polygon class="cls-63" points="19.8 44 2 26.2 2 25.4 20.6 44 19.8 44"/><polygon class="cls-64" points="19.01 44 2 26.99 2 26.2 19.8 44 19.01 44"/><polygon class="cls-65" points="18.22 44 2 27.78 2 26.99 19.01 44 18.22 44"/><polygon class="cls-66" points="17.43 44 2 28.57 2 27.78 18.22 44 17.43 44"/><polygon class="cls-67" points="16.64 44 2 29.36 2 28.57 17.43 44 16.64 44"/><polygon class="cls-68" points="15.84 44 2 30.16 2 29.36 16.64 44 15.84 44"/><polygon class="cls-69" points="15.05 44 2 30.95 2 30.16 15.84 44 15.05 44"/><polygon class="cls-70" points="14.26 44 2 31.74 2 30.95 15.05 44 14.26 44"/><polygon class="cls-71" points="13.47 44 2 32.53 2 31.74 14.26 44 13.47 44"/><polygon class="cls-72" points="12.68 44 2 33.33 2 32.53 13.47 44 12.68 44"/><polygon class="cls-73" points="11.88 44 2 34.12 2 33.33 12.68 44 11.88 44"/><polygon class="cls-74" points="11.09 44 2 34.91 2 34.12 11.88 44 11.09 44"/><polygon class="cls-75" points="10.3 44 2 35.7 2 34.91 11.09 44 10.3 44"/><polygon class="cls-76" points="9.51 44 2 36.49 2 35.7 10.3 44 9.51 44"/><polygon class="cls-77" points="8.71 44 2 37.29 2 36.49 9.51 44 8.71 44"/><polygon class="cls-78" points="7.92 44 2 38.08 2 37.29 8.71 44 7.92 44"/><polygon class="cls-79" points="7.13 44 2 38.87 2 38.08 7.92 44 7.13 44"/><polygon class="cls-80" points="6.34 44 2 39.66 2 38.87 7.13 44 6.34 44"/><polygon class="cls-81" points="5.54 44 2 40.46 2 39.66 6.34 44 5.54 44"/><polygon class="cls-82" points="4.75 44 2 41.25 2 40.46 5.54 44 4.75 44"/><polygon class="cls-83" points="3.96 44 2 42.04 2 41.25 4.75 44 3.96 44"/><polygon class="cls-84" points="3.17 44 2 42.83 2 42.04 3.96 44 3.17 44"/><polygon class="cls-85" points="2.38 44 2 43.63 2 42.83 3.17 44 2.38 44"/><polygon class="cls-86" points="2 43.63 2.38 44 2 44 2 43.63"/></g><path class="cls-87" d="M48,46H0V5H48ZM4,42H44V9H4Z"/><g class="cls-88"><rect class="cls-3" x="31" y="19" width="0.16" height="12"/><rect class="cls-4" x="31.16" y="19" width="0.16" height="12"/><rect class="cls-5" x="31.33" y="19" width="0.16" height="12"/><rect class="cls-6" x="31.49" y="19" width="0.16" height="12"/><rect class="cls-7" x="31.65" y="19" width="0.16" height="12"/><rect class="cls-8" x="31.82" y="19" width="0.16" height="12"/><rect class="cls-9" x="31.98" y="19" width="0.16" height="12"/><rect class="cls-10" x="32.14" y="19" width="0.16" height="12"/><rect class="cls-11" x="32.3" y="19" width="0.16" height="12"/><rect class="cls-12" x="32.47" y="19" width="0.16" height="12"/><rect class="cls-13" x="32.63" y="19" width="0.16" height="12"/><rect class="cls-14" x="32.79" y="19" width="0.16" height="12"/><rect class="cls-15" x="32.96" y="19" width="0.16" height="12"/><rect class="cls-16" x="33.12" y="19" width="0.16" height="12"/><rect class="cls-17" x="33.28" y="19" width="0.16" height="12"/><rect class="cls-18" x="33.45" y="19" width="0.16" height="12"/><rect class="cls-19" x="33.61" y="19" width="0.16" height="12"/><rect class="cls-20" x="33.77" y="19" width="0.16" height="12"/><rect class="cls-21" x="33.93" y="19" width="0.16" height="12"/><rect class="cls-22" x="34.1" y="19" width="0.16" height="12"/><rect class="cls-23" x="34.26" y="19" width="0.16" height="12"/><rect class="cls-24" x="34.42" y="19" width="0.16" height="12"/><rect class="cls-25" x="34.59" y="19" width="0.16" height="12"/><rect class="cls-26" x="34.75" y="19" width="0.16" height="12"/><rect class="cls-27" x="34.91" y="19" width="0.16" height="12"/><rect class="cls-28" x="35.08" y="19" width="0.16" height="12"/><rect class="cls-29" x="35.24" y="19" width="0.16" height="12"/><rect class="cls-30" x="35.4" y="19" width="0.16" height="12"/><rect class="cls-31" x="35.57" y="19" width="0.16" height="12"/><rect class="cls-32" x="35.73" y="19" width="0.16" height="12"/><rect class="cls-33" x="35.89" y="19" width="0.16" height="12"/><rect class="cls-34" x="36.05" y="19" width="0.16" height="12"/><rect class="cls-35" x="36.22" y="19" width="0.16" height="12"/><rect class="cls-36" x="36.38" y="19" width="0.16" height="12"/><rect class="cls-37" x="36.54" y="19" width="0.16" height="12"/><rect class="cls-38" x="36.71" y="19" width="0.16" height="12"/><rect class="cls-39" x="36.87" y="19" width="0.16" height="12"/><rect class="cls-40" x="37.03" y="19" width="0.16" height="12"/><rect class="cls-41" x="37.2" y="19" width="0.16" height="12"/><rect class="cls-42" x="37.36" y="19" width="0.16" height="12"/><rect class="cls-43" x="37.52" y="19" width="0.16" height="12"/><rect class="cls-44" x="37.68" y="19" width="0.16" height="12"/><rect class="cls-45" x="37.85" y="19" width="0.16" height="12"/><rect class="cls-46" x="38.01" y="19" width="0.16" height="12"/><rect class="cls-47" x="38.17" y="19" width="0.16" height="12"/><rect class="cls-48" x="38.34" y="19" width="0.16" height="12"/><rect class="cls-49" x="38.5" y="19" width="0.16" height="12"/><rect class="cls-50" x="38.66" y="19" width="0.16" height="12"/><rect class="cls-51" x="38.83" y="19" width="0.16" height="12"/><rect class="cls-52" x="38.99" y="19" width="0.16" height="12"/><rect class="cls-53" x="39.15" y="19" width="0.16" height="12"/><rect class="cls-54" x="39.32" y="19" width="0.16" height="12"/><rect class="cls-55" x="39.48" y="19" width="0.16" height="12"/><rect class="cls-56" x="39.64" y="19" width="0.16" height="12"/><rect class="cls-57" x="39.8" y="19" width="0.16" height="12"/><rect class="cls-58" x="39.97" y="19" width="0.16" height="12"/><rect class="cls-59" x="40.13" y="19" width="0.16" height="12"/><rect class="cls-60" x="40.29" y="19" width="0.16" height="12"/><rect class="cls-61" x="40.46" y="19" width="0.16" height="12"/><rect class="cls-62" x="40.62" y="19" width="0.16" height="12"/><rect class="cls-63" x="40.78" y="19" width="0.16" height="12"/><rect class="cls-64" x="40.95" y="19" width="0.16" height="12"/><rect class="cls-65" x="41.11" y="19" width="0.16" height="12"/><rect class="cls-66" x="41.27" y="19" width="0.16" height="12"/><rect class="cls-67" x="41.43" y="19" width="0.16" height="12"/><rect class="cls-68" x="41.6" y="19" width="0.16" height="12"/><rect class="cls-69" x="41.76" y="19" width="0.16" height="12"/><rect class="cls-70" x="41.92" y="19" width="0.16" height="12"/><rect class="cls-71" x="42.09" y="19" width="0.16" height="12"/><rect class="cls-72" x="42.25" y="19" width="0.16" height="12"/><rect class="cls-73" x="42.41" y="19" width="0.16" height="12"/><rect class="cls-74" x="42.58" y="19" width="0.16" height="12"/><rect class="cls-75" x="42.74" y="19" width="0.16" height="12"/><rect class="cls-76" x="42.9" y="19" width="0.16" height="12"/><rect class="cls-77" x="43.07" y="19" width="0.16" height="12"/><rect class="cls-78" x="43.23" y="19" width="0.16" height="12"/><rect class="cls-79" x="43.39" y="19" width="0.16" height="12"/><rect class="cls-80" x="43.55" y="19" width="0.16" height="12"/><rect class="cls-81" x="43.72" y="19" width="0.16" height="12"/><rect class="cls-82" x="43.88" y="19" width="0.16" height="12"/><rect class="cls-83" x="44.04" y="19" width="0.16" height="12"/><rect class="cls-84" x="44.21" y="19" width="0.16" height="12"/><rect class="cls-85" x="44.37" y="19" width="0.16" height="12"/><rect class="cls-86" x="44.53" y="19" width="0.16" height="12"/><rect class="cls-89" x="44.7" y="19" width="0.16" height="12"/><rect class="cls-90" x="44.86" y="19" width="0.16" height="12"/><rect class="cls-91" x="45.02" y="19" width="0.16" height="12"/><rect class="cls-92" x="45.18" y="19" width="0.16" height="12"/><rect class="cls-93" x="45.35" y="19" width="0.16" height="12"/><rect class="cls-94" x="45.51" y="19" width="0.16" height="12"/><rect class="cls-95" x="45.67" y="19" width="0.16" height="12"/><rect class="cls-96" x="45.84" y="19" width="0.16" height="12"/></g><path class="cls-87" d="M48,33H29V17H48ZM33,29H44V21H33Z"/></svg>