<svg id="图层_1" data-name="图层 1" xmlns="http://www.w3.org/2000/svg" xmlns:xlink="http://www.w3.org/1999/xlink" viewBox="0 0 48 48"><defs><style>.cls-1{fill:none;}.cls-2{clip-path:url(#clip-path);}.cls-3{fill:#3077d8;}.cls-4{fill:#3077d8;}.cls-5{fill:#3077d8;}.cls-6{fill:#3077d8;}.cls-7{fill:#3077d8;}.cls-8{fill:#3077d8;}.cls-9{fill:#3077d8;}.cls-10{fill:#3077d8;}.cls-11{fill:#3077d8;}.cls-12{fill:#3077d8;}.cls-13{fill:#3077d8;}.cls-14{fill:#3077d8;}.cls-15{fill:#3077d8;}.cls-16{fill:#3077d8;}.cls-17{fill:#3077d8;}.cls-18{fill:#3077d8;}.cls-19{fill:#3077d8;}.cls-20{fill:#3077d8;}.cls-21{fill:#3077d8;}.cls-22{fill:#3077d8;}.cls-23{fill:#3077d8;}.cls-24{fill:#3077d8;}.cls-25{fill:#3077d8;}.cls-26{fill:#3077d8;}.cls-27{fill:#3077d8;}.cls-28{fill:#3077d8;}.cls-29{fill:#3077d8;}.cls-30{fill:#3077d8;}.cls-31{fill:#3077d8;}.cls-32{fill:#3077d8;}.cls-33{fill:#3077d8;}.cls-34{fill:#3077d8;}.cls-35{fill:#3077d8;}.cls-36{fill:#3077d8;}.cls-37{fill:#3077d8;}.cls-38{fill:#3077d8;}.cls-39{fill:#3077d8;}.cls-40{fill:#3077d8;}.cls-41{fill:#3077d8;}.cls-42{fill:#3077d8;}.cls-43{fill:#3077d8;}.cls-44{fill:#3077d8;}.cls-45{fill:#3077d8;}.cls-46{fill:#3077d8;}.cls-47{fill:#3077d8;}.cls-48{fill:#3077d8;}.cls-49{fill:#3077d8;}.cls-50{fill:#3077d8;}.cls-51{fill:#3077d8;}.cls-52{fill:#3077d8;}.cls-53{fill:#3077d8;}.cls-54{fill:#3077d8;}.cls-55{fill:#3077d8;}.cls-56{fill:#3077d8;}.cls-57{fill:#3077d8;}.cls-58{fill:#3077d8;}.cls-59{fill:#3077d8;}.cls-60{fill:#3077d8;}.cls-61{fill:#3077d8;}.cls-62{fill:#3077d8;}.cls-63{fill:#3077d8;}.cls-64{fill:#3077d8;}.cls-65{fill:#3077d8;}.cls-66{fill:#3077d8;}.cls-67{fill:#3077d8;}.cls-68{fill:#3077d8;}.cls-69{fill:#3077d8;}.cls-70{fill:#3077d8;}.cls-71{fill:#3077d8;}.cls-72{fill:#3077d8;}.cls-73{fill:#3077d8;}.cls-74{fill:#3077d8;}.cls-75{fill:#3077d8;}.cls-76{fill:#3077d8;}.cls-77{fill:#3077d8;}.cls-78{fill:#3077d8;}.cls-79{fill:#3077d8;}.cls-80{fill:#3077d8;}.cls-81{fill:#3077d8;}.cls-82{fill:#3077d8;}.cls-83{fill:#3077d8;}.cls-84{fill:#3077d8;}.cls-85{fill:#3077d8;}.cls-86{fill:#3077d8;}.cls-87{fill:#3077d8;}.cls-88{fill:#3077d8;}.cls-89{clip-path:url(#clip-path-2);}.cls-90{fill:#3077d8;}.cls-91{fill:#3077d8;}.cls-92{fill:#3077d8;}.cls-93{fill:#3077d8;}.cls-94{fill:#3077d8;}.cls-95{fill:#3077d8;}.cls-96{fill:#3077d8;}</style><clipPath id="clip-path"><circle class="cls-1" cx="24" cy="24" r="22"/></clipPath><clipPath id="clip-path-2"><polygon class="cls-1" points="26.75 26.75 15.75 32.25 21.25 21.25 32.25 15.75 26.75 26.75"/></clipPath></defs><title>资讯2xhdpi</title><g class="cls-2"><polygon class="cls-3" points="46 17.34 28.07 2 46 2 46 17.34"/><polygon class="cls-3" points="46 18.13 27.16 2 28.07 2 46 17.34 46 18.13"/><polygon class="cls-4" points="46 18.91 26.24 2 27.16 2 46 18.13 46 18.91"/><polygon class="cls-5" points="46 19.7 25.32 2 26.24 2 46 18.91 46 19.7"/><polygon class="cls-6" points="46 20.48 24.41 2 25.32 2 46 19.7 46 20.48"/><polygon class="cls-7" points="46 21.27 23.49 2 24.41 2 46 20.48 46 21.27"/><polygon class="cls-8" points="46 22.05 22.57 2 23.49 2 46 21.27 46 22.05"/><polygon class="cls-9" points="46 22.84 21.66 2 22.57 2 46 22.05 46 22.84"/><polygon class="cls-10" points="46 23.62 20.74 2 21.66 2 46 22.84 46 23.62"/><polygon class="cls-11" points="46 24.41 19.82 2 20.74 2 46 23.62 46 24.41"/><polygon class="cls-12" points="46 25.19 18.91 2 19.82 2 46 24.41 46 25.19"/><polygon class="cls-13" points="46 25.98 17.99 2 18.91 2 46 25.19 46 25.98"/><polygon class="cls-14" points="46 26.76 17.07 2 17.99 2 46 25.98 46 26.76"/><polygon class="cls-15" points="46 27.55 16.16 2 17.07 2 46 26.76 46 27.55"/><polygon class="cls-16" points="46 28.33 15.24 2 16.16 2 46 27.55 46 28.33"/><polygon class="cls-17" points="46 29.11 14.32 2 15.24 2 46 28.33 46 29.11"/><polygon class="cls-18" points="46 29.9 13.41 2 14.32 2 46 29.11 46 29.9"/><polygon class="cls-19" points="46 30.68 12.49 2 13.41 2 46 29.9 46 30.68"/><polygon class="cls-20" points="46 31.47 11.57 2 12.49 2 46 30.68 46 31.47"/><polygon class="cls-21" points="46 32.25 10.66 2 11.57 2 46 31.47 46 32.25"/><polygon class="cls-22" points="46 33.04 9.74 2 10.66 2 46 32.25 46 33.04"/><polygon class="cls-23" points="46 33.82 8.82 2 9.74 2 46 33.04 46 33.82"/><polygon class="cls-24" points="46 34.61 7.91 2 8.82 2 46 33.82 46 34.61"/><polygon class="cls-25" points="46 35.39 7.46 2.4 7.8 2 7.91 2 46 34.61 46 35.39"/><polygon class="cls-26" points="46 36.18 7.07 2.85 7.46 2.4 46 35.39 46 36.18"/><polygon class="cls-27" points="46 36.96 6.68 3.31 7.07 2.85 46 36.18 46 36.96"/><polygon class="cls-28" points="46 37.75 6.29 3.76 6.68 3.31 46 36.96 46 37.75"/><polygon class="cls-29" points="46 38.53 5.91 4.21 6.29 3.76 46 37.75 46 38.53"/><polygon class="cls-30" points="46 39.23 45.95 39.28 5.52 4.66 5.91 4.21 46 38.53 46 39.23"/><rect class="cls-31" x="25.24" y="-4.42" width="0.6" height="53.23" transform="translate(-7.93 27.17) rotate(-49.44)"/><rect class="cls-32" x="24.86" y="-3.96" width="0.6" height="53.23" transform="translate(-8.41 27.03) rotate(-49.44)"/><rect class="cls-33" x="24.47" y="-3.51" width="0.6" height="53.23" transform="translate(-8.89 26.89) rotate(-49.44)"/><rect class="cls-34" x="24.08" y="-3.06" width="0.6" height="53.23" transform="translate(-9.37 26.76) rotate(-49.44)"/><rect class="cls-35" x="23.69" y="-2.6" width="0.6" height="53.23" transform="translate(-9.85 26.62) rotate(-49.44)"/><rect class="cls-36" x="23.31" y="-2.15" width="0.6" height="53.23" transform="translate(-10.33 26.49) rotate(-49.44)"/><rect class="cls-37" x="22.92" y="-1.7" width="0.6" height="53.23" transform="translate(-10.81 26.35) rotate(-49.44)"/><rect class="cls-38" x="22.53" y="-1.25" width="0.6" height="53.23" transform="translate(-11.29 26.21) rotate(-49.44)"/><rect class="cls-39" x="22.14" y="-0.79" width="0.6" height="53.23" transform="translate(-11.77 26.08) rotate(-49.44)"/><polygon class="cls-40" points="42.47 43.35 42.08 43.81 2 9.5 2 8.77 2.03 8.74 42.47 43.35"/><polygon class="cls-41" points="42.08 43.81 41.69 44.26 2 10.29 2 9.5 42.08 43.81"/><polygon class="cls-42" points="41.69 44.26 41.3 44.71 2 11.07 2 10.29 41.69 44.26"/><polygon class="cls-43" points="41.3 44.71 40.91 45.17 2 11.86 2 11.07 41.3 44.71"/><polygon class="cls-44" points="40.91 45.17 40.53 45.62 2 12.64 2 11.86 40.91 45.17"/><polygon class="cls-45" points="40.53 45.62 40.2 46 40.06 46 2 13.42 2 12.64 40.53 45.62"/><polygon class="cls-46" points="39.14 46 2 14.21 2 13.42 40.06 46 39.14 46"/><polygon class="cls-47" points="38.22 46 2 14.99 2 14.21 39.14 46 38.22 46"/><polygon class="cls-48" points="37.3 46 2 15.78 2 14.99 38.22 46 37.3 46"/><polygon class="cls-49" points="36.39 46 2 16.56 2 15.78 37.3 46 36.39 46"/><polygon class="cls-50" points="35.47 46 2 17.35 2 16.56 36.39 46 35.47 46"/><polygon class="cls-51" points="34.55 46 2 18.13 2 17.35 35.47 46 34.55 46"/><polygon class="cls-52" points="33.64 46 2 18.92 2 18.13 34.55 46 33.64 46"/><polygon class="cls-53" points="32.72 46 2 19.7 2 18.92 33.64 46 32.72 46"/><polygon class="cls-54" points="31.8 46 2 20.49 2 19.7 32.72 46 31.8 46"/><polygon class="cls-55" points="30.89 46 2 21.27 2 20.49 31.8 46 30.89 46"/><polygon class="cls-56" points="29.97 46 2 22.06 2 21.27 30.89 46 29.97 46"/><polygon class="cls-57" points="29.05 46 2 22.84 2 22.06 29.97 46 29.05 46"/><polygon class="cls-58" points="28.14 46 2 23.63 2 22.84 29.05 46 28.14 46"/><polygon class="cls-59" points="27.22 46 2 24.41 2 23.63 28.14 46 27.22 46"/><polygon class="cls-60" points="26.3 46 2 25.2 2 24.41 27.22 46 26.3 46"/><polygon class="cls-61" points="25.39 46 2 25.98 2 25.2 26.3 46 25.39 46"/><polygon class="cls-62" points="24.47 46 2 26.77 2 25.98 25.39 46 24.47 46"/><polygon class="cls-63" points="23.55 46 2 27.55 2 26.77 24.47 46 23.55 46"/><polygon class="cls-64" points="22.64 46 2 28.34 2 27.55 23.55 46 22.64 46"/><polygon class="cls-65" points="21.72 46 2 29.12 2 28.34 22.64 46 21.72 46"/><polygon class="cls-66" points="20.8 46 2 29.9 2 29.12 21.72 46 20.8 46"/><polygon class="cls-67" points="19.89 46 2 30.69 2 29.9 20.8 46 19.89 46"/><polygon class="cls-68" points="18.97 46 2 31.47 2 30.69 19.89 46 18.97 46"/><polygon class="cls-69" points="18.05 46 2 32.26 2 31.47 18.97 46 18.05 46"/><polygon class="cls-70" points="17.14 46 2 33.04 2 32.26 18.05 46 17.14 46"/><polygon class="cls-71" points="16.22 46 2 33.83 2 33.04 17.14 46 16.22 46"/><polygon class="cls-72" points="15.3 46 2 34.61 2 33.83 16.22 46 15.3 46"/><polygon class="cls-73" points="14.39 46 2 35.4 2 34.61 15.3 46 14.39 46"/><polygon class="cls-74" points="13.47 46 2 36.18 2 35.4 14.39 46 13.47 46"/><polygon class="cls-75" points="12.55 46 2 36.97 2 36.18 13.47 46 12.55 46"/><polygon class="cls-76" points="11.64 46 2 37.75 2 36.97 12.55 46 11.64 46"/><polygon class="cls-77" points="10.72 46 2 38.54 2 37.75 11.64 46 10.72 46"/><polygon class="cls-78" points="9.8 46 2 39.32 2 38.54 10.72 46 9.8 46"/><polygon class="cls-79" points="8.88 46 2 40.11 2 39.32 9.8 46 8.88 46"/><polygon class="cls-80" points="7.97 46 2 40.89 2 40.11 8.88 46 7.97 46"/><polygon class="cls-81" points="7.05 46 2 41.68 2 40.89 7.97 46 7.05 46"/><polygon class="cls-82" points="6.13 46 2 42.46 2 41.68 7.05 46 6.13 46"/><polygon class="cls-83" points="5.22 46 2 43.24 2 42.46 6.13 46 5.22 46"/><polygon class="cls-84" points="4.3 46 2 44.03 2 43.24 5.22 46 4.3 46"/><polygon class="cls-85" points="3.38 46 2 44.81 2 44.03 4.3 46 3.38 46"/><polygon class="cls-86" points="2.47 46 2 45.6 2 44.81 3.38 46 2.47 46"/><polygon class="cls-87" points="2 45.6 2.47 46 2 46 2 45.6"/></g><path class="cls-88" d="M24,48A24,24,0,1,1,48,24,24,24,0,0,1,24,48ZM24,4A20,20,0,1,0,44,24,20,20,0,0,0,24,4Z"/><g class="cls-89"><rect class="cls-3" x="15.75" y="15.75" width="0.18" height="16.5"/><rect class="cls-4" x="15.93" y="15.75" width="0.18" height="16.5"/><rect class="cls-5" x="16.11" y="15.75" width="0.18" height="16.5"/><rect class="cls-6" x="16.29" y="15.75" width="0.18" height="16.5"/><rect class="cls-7" x="16.47" y="15.75" width="0.18" height="16.5"/><rect class="cls-8" x="16.65" y="15.75" width="0.18" height="16.5"/><rect class="cls-9" x="16.83" y="15.75" width="0.18" height="16.5"/><rect class="cls-10" x="17.01" y="15.75" width="0.18" height="16.5"/><rect class="cls-11" x="17.18" y="15.75" width="0.18" height="16.5"/><rect class="cls-12" x="17.36" y="15.75" width="0.18" height="16.5"/><rect class="cls-13" x="17.54" y="15.75" width="0.18" height="16.5"/><rect class="cls-14" x="17.72" y="15.75" width="0.18" height="16.5"/><rect class="cls-15" x="17.9" y="15.75" width="0.18" height="16.5"/><rect class="cls-16" x="18.08" y="15.75" width="0.18" height="16.5"/><rect class="cls-17" x="18.26" y="15.75" width="0.18" height="16.5"/><rect class="cls-18" x="18.44" y="15.75" width="0.18" height="16.5"/><rect class="cls-19" x="18.62" y="15.75" width="0.18" height="16.5"/><rect class="cls-20" x="18.8" y="15.75" width="0.18" height="16.5"/><rect class="cls-21" x="18.98" y="15.75" width="0.18" height="16.5"/><rect class="cls-22" x="19.16" y="15.75" width="0.18" height="16.5"/><rect class="cls-23" x="19.34" y="15.75" width="0.18" height="16.5"/><rect class="cls-24" x="19.52" y="15.75" width="0.18" height="16.5"/><rect class="cls-25" x="19.7" y="15.75" width="0.18" height="16.5"/><rect class="cls-26" x="19.87" y="15.75" width="0.18" height="16.5"/><rect class="cls-27" x="20.05" y="15.75" width="0.18" height="16.5"/><rect class="cls-28" x="20.23" y="15.75" width="0.18" height="16.5"/><rect class="cls-29" x="20.41" y="15.75" width="0.18" height="16.5"/><rect class="cls-30" x="20.59" y="15.75" width="0.18" height="16.5"/><rect class="cls-31" x="20.77" y="15.75" width="0.18" height="16.5"/><rect class="cls-32" x="20.95" y="15.75" width="0.18" height="16.5"/><rect class="cls-33" x="21.13" y="15.75" width="0.18" height="16.5"/><rect class="cls-34" x="21.31" y="15.75" width="0.18" height="16.5"/><rect class="cls-35" x="21.49" y="15.75" width="0.18" height="16.5"/><rect class="cls-36" x="21.67" y="15.75" width="0.18" height="16.5"/><rect class="cls-37" x="21.85" y="15.75" width="0.18" height="16.5"/><rect class="cls-38" x="22.03" y="15.75" width="0.18" height="16.5"/><rect class="cls-39" x="22.21" y="15.75" width="0.18" height="16.5"/><rect class="cls-40" x="22.39" y="15.75" width="0.18" height="16.5"/><rect class="cls-41" x="22.57" y="15.75" width="0.18" height="16.5"/><rect class="cls-42" x="22.74" y="15.75" width="0.18" height="16.5"/><rect class="cls-43" x="22.92" y="15.75" width="0.18" height="16.5"/><rect class="cls-44" x="23.1" y="15.75" width="0.18" height="16.5"/><rect class="cls-45" x="23.28" y="15.75" width="0.18" height="16.5"/><rect class="cls-46" x="23.46" y="15.75" width="0.18" height="16.5"/><rect class="cls-47" x="23.64" y="15.75" width="0.18" height="16.5"/><rect class="cls-48" x="23.82" y="15.75" width="0.18" height="16.5"/><rect class="cls-49" x="24" y="15.75" width="0.18" height="16.5"/><rect class="cls-50" x="24.18" y="15.75" width="0.18" height="16.5"/><rect class="cls-51" x="24.36" y="15.75" width="0.18" height="16.5"/><rect class="cls-52" x="24.54" y="15.75" width="0.18" height="16.5"/><rect class="cls-53" x="24.72" y="15.75" width="0.18" height="16.5"/><rect class="cls-54" x="24.9" y="15.75" width="0.18" height="16.5"/><rect class="cls-55" x="25.08" y="15.75" width="0.18" height="16.5"/><rect class="cls-56" x="25.26" y="15.75" width="0.18" height="16.5"/><rect class="cls-57" x="25.43" y="15.75" width="0.18" height="16.5"/><rect class="cls-58" x="25.61" y="15.75" width="0.18" height="16.5"/><rect class="cls-59" x="25.79" y="15.75" width="0.18" height="16.5"/><rect class="cls-60" x="25.97" y="15.75" width="0.18" height="16.5"/><rect class="cls-61" x="26.15" y="15.75" width="0.18" height="16.5"/><rect class="cls-62" x="26.33" y="15.75" width="0.18" height="16.5"/><rect class="cls-63" x="26.51" y="15.75" width="0.18" height="16.5"/><rect class="cls-64" x="26.69" y="15.75" width="0.18" height="16.5"/><rect class="cls-65" x="26.87" y="15.75" width="0.18" height="16.5"/><rect class="cls-66" x="27.05" y="15.75" width="0.18" height="16.5"/><rect class="cls-67" x="27.23" y="15.75" width="0.18" height="16.5"/><rect class="cls-68" x="27.41" y="15.75" width="0.18" height="16.5"/><rect class="cls-69" x="27.59" y="15.75" width="0.18" height="16.5"/><rect class="cls-70" x="27.77" y="15.75" width="0.18" height="16.5"/><rect class="cls-71" x="27.95" y="15.75" width="0.18" height="16.5"/><rect class="cls-72" x="28.13" y="15.75" width="0.18" height="16.5"/><rect class="cls-73" x="28.3" y="15.75" width="0.18" height="16.5"/><rect class="cls-74" x="28.48" y="15.75" width="0.18" height="16.5"/><rect class="cls-75" x="28.66" y="15.75" width="0.18" height="16.5"/><rect class="cls-76" x="28.84" y="15.75" width="0.18" height="16.5"/><rect class="cls-77" x="29.02" y="15.75" width="0.18" height="16.5"/><rect class="cls-78" x="29.2" y="15.75" width="0.18" height="16.5"/><rect class="cls-79" x="29.38" y="15.75" width="0.18" height="16.5"/><rect class="cls-80" x="29.56" y="15.75" width="0.18" height="16.5"/><rect class="cls-81" x="29.74" y="15.75" width="0.18" height="16.5"/><rect class="cls-82" x="29.92" y="15.75" width="0.18" height="16.5"/><rect class="cls-83" x="30.1" y="15.75" width="0.18" height="16.5"/><rect class="cls-84" x="30.28" y="15.75" width="0.18" height="16.5"/><rect class="cls-85" x="30.46" y="15.75" width="0.18" height="16.5"/><rect class="cls-86" x="30.64" y="15.75" width="0.18" height="16.5"/><rect class="cls-87" x="30.82" y="15.75" width="0.18" height="16.5"/><rect class="cls-90" x="30.99" y="15.75" width="0.18" height="16.5"/><rect class="cls-91" x="31.17" y="15.75" width="0.18" height="16.5"/><rect class="cls-92" x="31.35" y="15.75" width="0.18" height="16.5"/><rect class="cls-93" x="31.53" y="15.75" width="0.18" height="16.5"/><rect class="cls-94" x="31.71" y="15.75" width="0.18" height="16.5"/><rect class="cls-95" x="31.89" y="15.75" width="0.18" height="16.5"/><rect class="cls-96" x="32.07" y="15.75" width="0.18" height="16.5"/></g><path class="cls-88" d="M11.28,36.72l8.48-17,17-8.48-8.48,17Zm11.46-14-2.52,5,5-2.52,2.52-5Z"/></svg>